# xmcd CD database file
#
# Track frame offsets:
#	150
#	13099
#	30358
#	47983
#	63461
#	84725
#	101874
#	117029
#	130885
#	148291
#	164257
#	180466
#
# Disc length: 2630 seconds
#
# Revision: 0
# Processed by: cddbd v1.5.2PL0 Copyright (c) Steve Scherf et al.
# Submitted via: CdAid (MTCDDB.DLL V2003.12.21)
#
DISCID=a50a440c
DTITLE=Alan Jackson - Freight Train
DYEAR=2010
DGENRE=Country
TTITLE0=Hard Hat and A Hammer
TTITLE1=Every Now and Then
TTITLE2=After 17
TTITLE3=It's Just That Way
TTITLE4=Freight Train
TTITLE5=Tailights Blue
TTITLE6=I Could Get Used To This Loving Thing
TTITLE7=Till The End (with Lee Ann Womack)
TTITLE8=That's Where I Belong
TTITLE9=Big Green Eyes
TTITLE10=True Love Is A Golden Ring
TTITLE11=The Best Keeps Getting Better
EXTD=ID3G:   2 YEAR: 2010
EXTT0=
EXTT1=
EXTT2=
EXTT3=
EXTT4=
EXTT5=
EXTT6=
EXTT7=
EXTT8=
EXTT9=
EXTT10=
EXTT11=
PLAYORDER=
